<svg width="53" height="43" viewBox="0 0 53 43" fill="none" xmlns="http://www.w3.org/2000/svg">
<path d="M23.1875 37.625C25.0169 37.625 26.5 36.4218 26.5 34.9375C26.5 33.4532 25.0169 32.25 23.1875 32.25C21.3581 32.25 19.875 33.4532 19.875 34.9375C19.875 36.4218 21.3581 37.625 23.1875 37.625Z" fill="black"/>
<path d="M38.646 37.625C40.4755 37.625 41.9585 36.4218 41.9585 34.9375C41.9585 33.4532 40.4755 32.25 38.646 32.25C36.8166 32.25 35.3335 33.4532 35.3335 34.9375C35.3335 36.4218 36.8166 37.625 38.646 37.625Z" fill="black"/>
<path d="M30.9168 25.0654L39.7502 16.1071H33.1252V8.94043H28.7085V16.1071H22.0835L30.9168 25.0654Z" fill="black"/>
<path d="M38.2261 26.875H23.5628L13.6473 7.57876C13.3111 6.92491 12.7436 6.36659 12.0165 5.97434C11.2893 5.5821 10.4351 5.37353 9.56192 5.37501H4.4165V8.95834H9.56192L20.0515 29.3475C20.2172 29.6747 20.4985 29.9548 20.8601 30.1525C21.2216 30.3502 21.6472 30.4566 22.0832 30.4584H39.7498C40.1947 30.4573 40.6288 30.3473 40.9952 30.1427C41.3617 29.938 41.6434 29.6484 41.8036 29.3117L48.0532 16.125H43.3273L38.2261 26.875Z" fill="black"/>
</svg>
