<svg width="32" height="32" viewBox="0 0 32 32" fill="none" xmlns="http://www.w3.org/2000/svg">
<path d="M24 7V5H8V7H13.5C14.6037 7.00324 15.6676 7.41289 16.4884 8.15073C17.3092 8.88856 17.8296 9.90288 17.95 11H8V13H17.95C17.8296 14.0971 17.3092 15.1114 16.4884 15.8493C15.6676 16.5871 14.6037 16.9968 13.5 17H8V19.345L17.617 28L18.955 26.514L10.606 19H13.5C15.1361 18.9976 16.7112 18.3787 17.9113 17.2667C19.1113 16.1546 19.8482 14.6312 19.975 13H24V11H19.975C19.8603 9.49844 19.2255 8.08389 18.18 7H24Z" fill="black"/>
</svg>
